<svg xmlns="http://www.w3.org/2000/svg" width="111" height="70"><path d="M41 70h70V0H41zM27 70h11V0H27zM14 70h5V0h-5zM0 70h3V0H0z"/><g fill="#FFF"><path d="M57.405 12.64h1.272v7.611c0 .854-.047 1.81-.66 2.473-.301.316-.67.519-1.105.605-.021-.018-1.181-1.181-1.181-1.181.344-.004.704.022 1.03-.112a.827.827 0 00.483-.467c.118-.222.161-.734.161-1.464V12.64zM82.183 12.641h1.272v8.895h-1.272v-3.87h-5.204v3.87h-1.274v-8.895h1.274v3.873h5.204zM95.288 12.641h1.21v8.895h-1.096l-6.216-6.85v6.85H87.99v-8.895h1.031l6.267 6.909zM52.187 31.724v8.946h5.481v-1.154h-4.197v-7.792zM61.956 31.724v8.946h5.771v-1.154H63.24v-2.782h4.237V35.58H63.24v-2.702h4.369v-1.154zM83.781 31.724l-2.441 6.165-2.492-6.165h-1.219l-2.478 6.165-2.467-6.165H71.4l3.62 9.024h.249l2.963-7.319 2.94 7.319h.25l3.631-9.024zM88.926 40.669h1.286v-8.944h-1.286zM97.448 36.943l-.974-.592c-.61-.373-.996-.744-1.273-1.091a1.99 1.99 0 01-.433-1.268c0-.704.243-1.277.733-1.716.488-.439 1.139-.652 1.922-.652.822 0 1.431.21 2.054.629v1.454c-.644-.62-1.339-.931-2.081-.931-.418 0-.762.097-1.03.291-.269.193-.403.447-.403.749 0 .268.065.49.262.724.199.234.552.507.992.765l1.014.578c1.091.652 1.6 1.481 1.6 2.488 0 .718-.248 1.31-.729 1.756-.48.448-1.096.688-1.864.674-.882-.017-1.672-.262-2.414-.823v-1.627c.69.877 1.492 1.295 2.399 1.295.402 0 .736-.092 1.002-.315.268-.224.412-.503.412-.839 0-.545-.404-1.06-1.189-1.549M53.093 51.577c0 .106.042.229.128.369s.184.261.298.362a1.94 1.94 0 00.402-.315c.1-.106.15-.231.15-.374a.435.435 0 00-.139-.33.5.5 0 00-.358-.132.513.513 0 00-.337.118.373.373 0 00-.144.302m-.569 2.5c0 .155.059.286.178.394.12.105.261.158.425.158.278 0 .571-.134.881-.402l-.832-.932a2.482 2.482 0 00-.479.379.577.577 0 00-.173.403m1.064-3.624c.37 0 .679.104.925.314.246.209.369.477.369.803 0 .236-.073.455-.22.658s-.372.406-.674.604l.666.771c.196-.196.376-.453.541-.771h.879c-.23.557-.526 1.012-.886 1.367l.974 1.1h-1.211l-.447-.51c-.245.203-.481.35-.709.438s-.5.134-.817.134c-.391 0-.72-.118-.989-.354a1.112 1.112 0 01-.402-.867c0-.285.097-.541.29-.766.193-.225.468-.433.823-.624a2.92 2.92 0 01-.371-.578 1.265 1.265 0 01-.118-.526c0-.354.129-.641.388-.862.258-.221.587-.331.989-.331M61.062 52.534c.25 0 .443-.058.585-.172.14-.114.21-.283.21-.508 0-.446-.287-.669-.859-.669h-.64v1.349h.704zm.233-2.081c.453 0 .822.133 1.104.395.283.262.425.6.425 1.014 0 .419-.143.757-.43 1.018-.287.258-.665.387-1.134.387h-.902V55.3h-.936v-4.846h1.873zM65.193 53.408h1.564l-.818-1.918-.746 1.918zm1.223-2.955l2.139 4.846h-.988l-.503-1.18H64.91l-.468 1.18h-.98l1.996-4.846h.958zM71.337 52.521c.246 0 .438-.062.578-.184.14-.123.21-.29.21-.503 0-.223-.068-.389-.208-.498s-.337-.165-.593-.165h-.583v1.35h.596zm.212-2.068c.456 0 .827.127 1.113.379.287.252.43.58.43.984 0 .275-.07.516-.213.721a1.424 1.424 0 01-.633.482c.154.083.293.197.413.34.12.144.271.387.448.726.295.587.515.991.658 1.214h-1.043a5.14 5.14 0 01-.293-.51c-.268-.516-.465-.863-.59-1.043a1.434 1.434 0 00-.359-.381.725.725 0 00-.399-.113h-.34v2.047h-.937v-4.846h1.745zM78.879 50.453v.733h-1.721v4.113h-.935v-4.113h-1.721v-.733zM81.234 50.453l2.879 3.383v-3.383h.915v4.846h-.804l-2.896-3.438v3.438h-.916v-4.846zM90.121 50.453v.733h-2.195v1.273h2.101v.73h-2.101v1.377h2.244v.733h-3.181v-4.846zM93.51 52.521c.245 0 .438-.062.577-.184.14-.123.21-.29.21-.503 0-.223-.069-.389-.208-.498-.14-.109-.337-.165-.593-.165h-.584v1.35h.598zm.211-2.068c.456 0 .827.127 1.114.379.286.252.43.58.43.984 0 .275-.071.516-.214.721a1.424 1.424 0 01-.633.482c.154.083.293.197.413.34.12.144.27.387.448.726.295.587.515.991.658 1.214h-1.044a5.885 5.885 0 01-.292-.51c-.268-.516-.464-.863-.589-1.043a1.451 1.451 0 00-.36-.381.727.727 0 00-.399-.113h-.341v2.047h-.936v-4.846h1.745zM98.748 50.391c.473 0 .926.118 1.362.354v.834c-.501-.303-.946-.455-1.335-.455-.235 0-.42.045-.553.137s-.199.213-.199.366c0 .183.123.352.371.506.069.047.336.176.801.39.398.187.685.395.861.623.174.229.263.504.263.825 0 .417-.15.752-.449 1.008-.3.257-.687.384-1.164.384-.31 0-.576-.033-.8-.103a3.339 3.339 0 01-.75-.353v-.922c.518.43 1.006.645 1.463.645a.97.97 0 00.557-.148.467.467 0 00.211-.396c0-.224-.123-.407-.367-.548a19.04 19.04 0 00-.789-.399c-.381-.174-.666-.376-.854-.606a1.239 1.239 0 01-.282-.805c0-.406.151-.732.454-.974.303-.242.702-.363 1.199-.363M66.967 22.974s-.547-.627-.578-.671l-.863-1.126c-.8-1.146-1.6-2.292-2.393-3.443-.524-.761-.867-1.494-1.046-2.239-.236-.972-.151-1.872.244-2.676.562-1.143 1.716-1.747 3.025-1.568 1.324.177 2.297.933 2.889 2.249.043.099.082.199.115.299.208-.283.442-.558.721-.783.818-.663 1.865-.635 2.541.064.729.752.731 1.981.668 2.645-.13 1.343-.866 2.323-1.515 3.186-.537.716-1.178 1.452-2.016 2.316-.294.303-.592.602-.889.9l-.353.354c-.04.04-.08.074-.123.112l-.427.381zm-2.059-10.589c-.68 0-1.23.336-1.532.951-.276.56-.328 1.178-.157 1.886.146.604.43 1.21.873 1.852.791 1.149 1.59 2.292 2.389 3.437l.56.801.005-.006c.295-.294.589-.588.879-.887.802-.829 1.412-1.53 1.92-2.205.717-.955 1.194-1.652 1.287-2.598.073-.779-.055-1.424-.347-1.723-.302-.312-.712-.179-.971.03-.345.279-.63.722-.904 1.148-.095.147-.19.293-.285.431l-.087.128s-.127.188-.397.188c-.46 0-.498-.187-.529-.242-.028-.048-.079-.295-.079-.295-.012-.051-.03-.124-.037-.179-.036-.153-.057-.262-.087-.388-.067-.267-.129-.519-.226-.734-.421-.937-1.068-1.451-1.979-1.573a1.896 1.896 0 00-.296-.022"/></g></svg>